<svg width="22" height="20" viewBox="0 0 32 32" fill="none" xmlns="http://www.w3.org/2000/svg">
<path fill-rule="evenodd" clip-rule="evenodd" d="M27.708 4.29202C27.8012 4.38491 27.8751 4.49526 27.9255 4.61675C27.9759 4.73824 28.0018 4.86848 28.0018 5.00002C28.0018 5.13155 27.9759 5.26179 27.9255 5.38329C27.8751 5.50478 27.8012 5.61513 27.708 5.70802L5.70804 27.708C5.52027 27.8958 5.26559 28.0013 5.00004 28.0013C4.73449 28.0013 4.47982 27.8958 4.29204 27.708C4.10427 27.5202 3.99878 27.2656 3.99878 27C3.99878 26.7345 4.10427 26.4798 4.29204 26.292L26.292 4.29202C26.3849 4.19889 26.4953 4.12501 26.6168 4.07459C26.7383 4.02418 26.8685 3.99823 27 3.99823C27.1316 3.99823 27.2618 4.02418 27.3833 4.07459C27.5048 4.12501 27.6152 4.19889 27.708 4.29202Z" fill="#54595E"/>
<path fill-rule="evenodd" clip-rule="evenodd" d="M4.29208 4.29202C4.19895 4.38491 4.12507 4.49526 4.07465 4.61675C4.02424 4.73824 3.99829 4.86848 3.99829 5.00002C3.99829 5.13155 4.02424 5.26179 4.07465 5.38329C4.12507 5.50478 4.19895 5.61513 4.29208 5.70802L26.2921 27.708C26.4799 27.8958 26.7345 28.0013 27.0001 28.0013C27.2656 28.0013 27.5203 27.8958 27.7081 27.708C27.8959 27.5202 28.0013 27.2656 28.0013 27C28.0013 26.7345 27.8959 26.4798 27.7081 26.292L5.70808 4.29202C5.61519 4.19889 5.50484 4.12501 5.38335 4.07459C5.26186 4.02418 5.13161 3.99823 5.00008 3.99823C4.86854 3.99823 4.7383 4.02418 4.61681 4.07459C4.49532 4.12501 4.38497 4.19889 4.29208 4.29202Z" fill="#54595E"/>
</svg>
