<svg width="36" height="36" viewBox="0 0 36 36" fill="none" xmlns="http://www.w3.org/2000/svg">
<path d="M2 2V12H0V8V0H12V2H2Z" fill="#6C757D"/>
<path d="M0 24H2V34H12V36H0V24Z" fill="#6C757D"/>
<path d="M24 36H36V24H34V34H24V36Z" fill="#6C757D"/>
<path d="M34 12V2H24V0H36V12H34Z" fill="#6C757D"/>
<path d="M7.33008 24H5.52344V13.4336H7.33008V24ZM5.37695 10.6309C5.37695 10.3379 5.46484 10.0905 5.64062 9.88867C5.82292 9.68685 6.08984 9.58594 6.44141 9.58594C6.79297 9.58594 7.0599 9.68685 7.24219 9.88867C7.42448 10.0905 7.51562 10.3379 7.51562 10.6309C7.51562 10.9238 7.42448 11.168 7.24219 11.3633C7.0599 11.5586 6.79297 11.6562 6.44141 11.6562C6.08984 11.6562 5.82292 11.5586 5.64062 11.3633C5.46484 11.168 5.37695 10.9238 5.37695 10.6309ZM9.79102 18.6289C9.79102 16.9688 10.1719 15.6569 10.9336 14.6934C11.6953 13.7233 12.7174 13.2383 14 13.2383C15.25 13.2383 16.2363 13.6582 16.959 14.498L17.0371 13.4336H18.6973V28.0625H16.8906V23.0234C16.1615 23.8047 15.1914 24.1953 13.9805 24.1953C12.7044 24.1953 11.6855 23.7005 10.9238 22.7109C10.1686 21.7148 9.79102 20.3965 9.79102 18.7559V18.6289ZM11.5977 18.834C11.5977 20.0449 11.8516 20.9954 12.3594 21.6855C12.8737 22.3757 13.5638 22.7207 14.4297 22.7207C15.5039 22.7207 16.3242 22.2454 16.8906 21.2949V16.1191C16.3177 15.1882 15.5039 14.7227 14.4492 14.7227C13.5768 14.7227 12.8835 15.071 12.3691 15.7676C11.8548 16.4577 11.5977 17.4798 11.5977 18.834ZM28.1211 24C28.0169 23.7917 27.9323 23.4206 27.8672 22.8867C27.0273 23.7591 26.0247 24.1953 24.8594 24.1953C23.8177 24.1953 22.9616 23.9023 22.291 23.3164C21.627 22.724 21.2949 21.9753 21.2949 21.0703C21.2949 19.9701 21.7116 19.1172 22.5449 18.5117C23.3848 17.8997 24.5632 17.5938 26.0801 17.5938H27.8379V16.7637C27.8379 16.1322 27.6491 15.6309 27.2715 15.2598C26.8939 14.8822 26.3372 14.6934 25.6016 14.6934C24.957 14.6934 24.4167 14.8561 23.9805 15.1816C23.5443 15.5072 23.3262 15.901 23.3262 16.3633H21.5098C21.5098 15.8359 21.6953 15.3281 22.0664 14.8398C22.444 14.3451 22.9518 13.9544 23.5898 13.668C24.2344 13.3815 24.9408 13.2383 25.709 13.2383C26.9264 13.2383 27.8802 13.5443 28.5703 14.1562C29.2604 14.7617 29.6185 15.5983 29.6445 16.666V21.5293C29.6445 22.4993 29.7682 23.2708 30.0156 23.8438V24H28.1211ZM25.123 22.623C25.6895 22.623 26.2266 22.4766 26.7344 22.1836C27.2422 21.8906 27.61 21.5098 27.8379 21.041V18.873H26.4219C24.2083 18.873 23.1016 19.5208 23.1016 20.8164C23.1016 21.3828 23.2904 21.8255 23.668 22.1445C24.0456 22.4635 24.5306 22.623 25.123 22.623Z" fill="#6C757D"/>
</svg>
