<svg width="16" height="16" viewBox="0 0 16 16" fill="none" xmlns="http://www.w3.org/2000/svg">
<path d="M8 3.09986L7.283 2.36286C5.6 0.632855 2.514 1.22986 1.4 3.40486C0.877002 4.42786 0.759002 5.90486 1.714 7.78986C2.634 9.60486 4.548 11.7789 8 14.1469C11.452 11.7789 13.365 9.60486 14.286 7.78986C15.241 5.90386 15.124 4.42786 14.6 3.40486C13.486 1.22986 10.4 0.631855 8.717 2.36186L8 3.09986ZM8 15.3519C-7.333 5.21986 3.279 -2.68814 7.824 1.49486C7.884 1.54986 7.943 1.60686 8 1.66586C8.05642 1.60691 8.11513 1.5502 8.176 1.49586C12.72 -2.69014 23.333 5.21885 8 15.3519Z" fill="#FF4646"/>
</svg>
