<svg width="18" height="20" viewBox="0 0 18 20" fill="none" xmlns="http://www.w3.org/2000/svg">
<path fill-rule="evenodd" clip-rule="evenodd" d="M0.930481 2.9209H7.04706H10.9529H16.9234C17.106 2.9209 17.2564 3.07129 17.2564 3.25391V3.81035C17.2564 4.0961 17.033 4.31953 16.7494 4.31953H15.3164H2.68359H1.25488C0.975586 4.31953 0.745697 4.0918 0.745697 3.81035V3.10782C0.745697 3.00468 0.827332 2.9209 0.930481 2.9209ZM16.9234 2.24844H10.9307C10.788 1.31294 9.97617 0.591995 9 0.591995C8.02368 0.591995 7.2117 1.31143 7.06921 2.24844H0.930481C0.457825 2.24844 0.0732422 2.63301 0.0732422 3.10567V3.8082C0.0732422 4.45918 0.603912 4.98984 1.25488 4.98984H2.68359V17.0018C2.68359 18.3059 3.74493 19.3672 5.04901 19.3672H12.9488C14.2551 19.3672 15.3164 18.3059 15.3164 17.0018V4.98984H16.7494C17.3983 4.98984 17.9268 4.46133 17.9268 3.8082V3.25175C17.9268 2.69962 17.4756 2.24844 16.9234 2.24844ZM9 1.2623C9.6037 1.2623 10.1129 1.6834 10.2461 2.24844H7.75391C7.88712 1.6834 8.39413 1.2623 9 1.2623ZM3.35605 16.9996V4.98984H14.6461V16.9996C14.6461 17.9342 13.8856 18.6947 12.951 18.6947H5.05118C4.11661 18.6947 3.35605 17.9342 3.35605 16.9996ZM6.30188 15.2435C6.30188 15.4283 6.45227 15.5787 6.63705 15.5787C6.82181 15.5787 6.9722 15.4283 6.9722 15.2435V6.95055C6.9722 6.76578 6.82181 6.61539 6.63705 6.61539C6.45227 6.61539 6.30188 6.76578 6.30188 6.95055V15.2435ZM8.69308 15.2435C8.69308 15.4283 8.84348 15.5787 9.02826 15.5787C9.21301 15.5787 9.3634 15.4283 9.3634 15.2435V6.95055C9.3634 6.76578 9.21301 6.61539 9.02826 6.61539C8.84348 6.61539 8.69308 6.76578 8.69308 6.95055V15.2435ZM11.0843 14.0404C11.0843 14.2251 11.2347 14.3755 11.4195 14.3755C11.6042 14.3755 11.7546 14.2251 11.7546 14.0404V6.95055C11.7546 6.76578 11.6042 6.61539 11.4195 6.61539C11.2347 6.61539 11.0843 6.76578 11.0843 6.95055V14.0404Z" fill="#E86262"/>
</svg>
