<svg width="1372" height="49" viewBox="0 0 1372 49" fill="none" xmlns="http://www.w3.org/2000/svg">
<rect width="1372" height="49" fill="white"/>
<g clip-path="url(#clip0_1536_294)">
<path d="M19.366 31.3499C19.288 31.7939 19.726 32.1409 20.112 31.9429L24.502 29.6869L28.891 31.9429C29.277 32.1409 29.715 31.7939 29.637 31.3509L28.807 26.6209L32.329 23.2649C32.659 22.9509 32.489 22.3769 32.047 22.3149L27.149 21.6189L24.965 17.2919C24.9234 17.2042 24.8578 17.1301 24.7757 17.0782C24.6937 17.0263 24.5986 16.9988 24.5015 16.9988C24.4044 16.9988 24.3093 17.0263 24.2273 17.0782C24.1452 17.1301 24.0796 17.2042 24.038 17.2919L21.854 21.6199L16.956 22.3159C16.515 22.3779 16.344 22.9519 16.673 23.2659L20.196 26.6219L19.366 31.3519V31.3499ZM24.271 28.5829L20.585 30.4769L21.279 26.5199C21.2953 26.4288 21.2889 26.3351 21.2605 26.2471C21.2321 26.159 21.1824 26.0793 21.116 26.0149L18.21 23.2449L22.262 22.6689C22.3459 22.6563 22.4255 22.6234 22.4939 22.5733C22.5624 22.5231 22.6176 22.4571 22.655 22.3809L24.5 18.7229L26.347 22.3809C26.3844 22.4571 26.4396 22.5231 26.5081 22.5733C26.5765 22.6234 26.6561 22.6563 26.74 22.6689L30.792 23.2439L27.886 26.0139C27.8194 26.0784 27.7697 26.1583 27.7413 26.2466C27.7128 26.3348 27.7066 26.4287 27.723 26.5199L28.417 30.4769L24.731 28.5829C24.6597 28.5462 24.5807 28.527 24.5005 28.527C24.4203 28.527 24.3413 28.5462 24.27 28.5829H24.271Z" fill="#F56C6C"/>
</g>
<circle cx="73.5" cy="24.5" r="1.5" fill="#F56C6C"/>
<circle cx="122.5" cy="24.5" r="9.5" fill="#FF4646"/>
<circle cx="171.5" cy="24.5" r="12" fill="#FF66E7"/>
<circle cx="220.5" cy="24.5" r="15" fill="#CE66FF"/>
<circle cx="269.5" cy="24.5" r="13" stroke="#CE66FF" stroke-width="4"/>
<g clip-path="url(#clip1_1536_294)">
<path d="M316.306 28.2215C316.113 28.3205 315.894 28.147 315.933 27.9255L316.348 25.5605L314.586 23.8825C314.422 23.7255 314.507 23.4385 314.728 23.4075L317.177 23.0595L318.269 20.896C318.367 20.701 318.634 20.701 318.732 20.896L319.824 23.0595L322.273 23.4075C322.494 23.4385 322.579 23.7255 322.414 23.8825L320.653 25.5605L321.068 27.9255C321.107 28.147 320.888 28.3205 320.695 28.2215L318.5 27.0935L316.305 28.2215H316.306Z" fill="#F56C6C"/>
</g>
<circle cx="318.5" cy="24.5" r="14.5" stroke="#CE66FF"/>
<circle cx="316.008" cy="10.1743" r="1.5" transform="rotate(-5 316.008 10.1743)" fill="#6CBBF5"/>
<path d="M321.487 9.69498C321.559 10.5203 320.948 11.2478 320.123 11.32C319.298 11.3922 318.57 10.7817 318.498 9.95645C318.426 9.13118 319.036 8.40363 319.862 8.33142C320.687 8.25922 321.414 8.86971 321.487 9.69498Z" fill="#F56C6C"/>
<circle cx="306.75" cy="16.5676" r="1.5" transform="rotate(-50 306.75 16.5676)" fill="#6CBBF5"/>
<path d="M310.285 12.3543C310.92 12.8868 311.003 13.8329 310.47 14.4675C309.938 15.1021 308.992 15.1849 308.357 14.6524C307.722 14.1199 307.64 13.1738 308.172 12.5392C308.705 11.9046 309.651 11.8218 310.285 12.3543Z" fill="#F56C6C"/>
<circle r="1.5" transform="matrix(-0.766044 -0.642788 -0.642788 0.766044 330.568 16.3211)" fill="#6CBBF5"/>
<path d="M326.354 12.7859C325.822 13.4205 325.905 14.3666 326.539 14.8991C327.174 15.4316 328.12 15.3489 328.653 14.7143C329.185 14.0796 329.102 13.1335 328.468 12.601C327.833 12.0685 326.887 12.1513 326.354 12.7859Z" fill="#E6A23C"/>
<circle cx="329.321" cy="33.5035" r="1.5" transform="rotate(130 329.321 33.5035)" fill="#1883D0"/>
<path d="M325.786 37.7168C325.151 37.1843 325.068 36.2381 325.601 35.6035C326.133 34.9689 327.08 34.8861 327.714 35.4186C328.349 35.9511 328.432 36.8973 327.899 37.5319C327.367 38.1665 326.42 38.2493 325.786 37.7168Z" fill="#4AC66D"/>
<circle r="1.5" transform="matrix(0.766044 0.642788 0.642788 -0.766044 306.503 32.7499)" fill="#FF55B1"/>
<path d="M310.717 36.2852C311.249 35.6505 311.166 34.7044 310.532 34.1719C309.897 33.6394 308.951 33.7222 308.419 34.3568C307.886 34.9914 307.969 35.9375 308.603 36.47C309.238 37.0025 310.184 36.9198 310.717 36.2852Z" fill="#4AC66D"/>
<circle cx="316.008" cy="39.1744" r="1.5" transform="rotate(-5 316.008 39.1744)" fill="#6C8AF5"/>
<path d="M321.487 38.695C321.559 39.5203 320.948 40.2478 320.123 40.32C319.298 40.3922 318.57 39.7817 318.498 38.9565C318.426 38.1312 319.036 37.4036 319.862 37.3314C320.687 37.2592 321.414 37.8697 321.487 38.695Z" fill="#F5DE8B"/>
<circle cx="304.174" cy="26.9924" r="1.5" transform="rotate(-95 304.174 26.9924)" fill="#6CF5F5"/>
<path d="M303.695 21.5133C304.52 21.441 305.248 22.0515 305.32 22.8768C305.392 23.7021 304.782 24.4296 303.956 24.5018C303.131 24.574 302.404 23.9636 302.331 23.1383C302.259 22.313 302.87 21.5855 303.695 21.5133Z" fill="#6CF57A"/>
<circle cx="333.174" cy="26.9924" r="1.5" transform="rotate(-95 333.174 26.9924)" fill="#BCFF88"/>
<path d="M332.695 21.5133C333.52 21.441 334.248 22.0515 334.32 22.8768C334.392 23.7021 333.782 24.4296 332.956 24.5018C332.131 24.574 331.404 23.9636 331.331 23.1383C331.259 22.313 331.87 21.5855 332.695 21.5133Z" fill="#FF66E7"/>
<g clip-path="url(#clip2_1536_294)">
<path d="M364.483 29.6172C364.218 29.7533 363.917 29.5147 363.97 29.2102L364.541 25.9583L362.119 23.651C361.893 23.4352 362.01 23.0405 362.313 22.9979L365.681 22.5194L367.182 19.5446C367.318 19.2765 367.684 19.2765 367.82 19.5446L369.321 22.5194L372.689 22.9979C372.992 23.0405 373.109 23.4352 372.882 23.651L370.461 25.9583L371.032 29.2102C371.085 29.5147 370.784 29.7533 370.519 29.6172L367.5 28.0662L364.483 29.6172H364.483Z" fill="#F56C6C"/>
</g>
<circle cx="367" cy="24" r="14.75" stroke="#CE66FF" stroke-width="0.5"/>
<circle cx="364.884" cy="7.03372" r="1.5" transform="rotate(-5 364.884 7.03372)" fill="#6CBBF5"/>
<path d="M370.363 6.55436C370.435 7.37963 369.825 8.10718 368.999 8.17938C368.174 8.25159 367.446 7.6411 367.374 6.81583C367.302 5.99055 367.913 5.263 368.738 5.1908C369.563 5.1186 370.291 5.72908 370.363 6.55436Z" fill="#F56C6C"/>
<circle cx="353.028" cy="15.0466" r="1.5" transform="rotate(-50 353.028 15.0466)" fill="#6CBBF5"/>
<path d="M356.563 10.8333C357.198 11.3658 357.28 12.3119 356.748 12.9465C356.215 13.5811 355.269 13.6639 354.635 13.1314C354 12.5989 353.917 11.6528 354.45 11.0182C354.982 10.3836 355.928 10.3008 356.563 10.8333Z" fill="#F56C6C"/>
<circle r="1.5" transform="matrix(-0.766044 -0.642788 -0.642788 0.766044 381.299 13.795)" fill="#6CBBF5"/>
<path d="M377.086 10.2595C376.554 10.8941 376.636 11.8403 377.271 12.3728C377.906 12.9053 378.852 12.8225 379.384 12.1879C379.917 11.5533 379.834 10.6071 379.199 10.0746C378.565 9.54213 377.619 9.62491 377.086 10.2595Z" fill="#E6A23C"/>
<circle cx="379.526" cy="35.9095" r="1.5" transform="rotate(130 379.526 35.9095)" fill="#1883D0"/>
<path d="M375.991 40.1228C375.356 39.5903 375.273 38.6441 375.806 38.0095C376.338 37.3749 377.285 37.2921 377.919 37.8246C378.554 38.3571 378.637 39.3033 378.104 39.9379C377.572 40.5725 376.625 40.6553 375.991 40.1228Z" fill="#4AC66D"/>
<circle r="1.5" transform="matrix(0.766044 0.642788 0.642788 -0.766044 353.111 33.9553)" fill="#FF55B1"/>
<path d="M357.325 37.4905C357.857 36.8559 357.774 35.9097 357.14 35.3772C356.505 34.8447 355.559 34.9275 355.026 35.5621C354.494 36.1967 354.577 37.1429 355.211 37.6754C355.846 38.2079 356.792 38.1251 357.325 37.4905Z" fill="#4AC66D"/>
<circle cx="364.935" cy="42.315" r="1.5" transform="rotate(-5 364.935 42.315)" fill="#6C8AF5"/>
<path d="M370.414 41.8356C370.486 42.6609 369.876 43.3884 369.051 43.4606C368.225 43.5328 367.498 42.9224 367.426 42.0971C367.353 41.2718 367.964 40.5443 368.789 40.472C369.614 40.3998 370.342 41.0103 370.414 41.8356Z" fill="#F5DE8B"/>
<circle cx="350.387" cy="27.7756" r="1.5" transform="rotate(-95 350.387 27.7756)" fill="#6CF5F5"/>
<path d="M349.908 22.2965C350.733 22.2243 351.46 22.8347 351.533 23.66C351.605 24.4853 350.994 25.2128 350.169 25.285C349.344 25.3572 348.616 24.7468 348.544 23.9215C348.472 23.0962 349.082 22.3687 349.908 22.2965Z" fill="#6CF57A"/>
<circle cx="384.962" cy="26.4062" r="1.5" transform="rotate(-95 384.962 26.4062)" fill="#BCFF88"/>
<path d="M384.482 20.9271C385.308 20.8549 386.035 21.4654 386.107 22.2906C386.18 23.1159 385.569 23.8435 384.744 23.9157C383.919 23.9879 383.191 23.3774 383.119 22.5521C383.047 21.7268 383.657 20.9993 384.482 20.9271Z" fill="#FF66E7"/>
<g clip-path="url(#clip3_1536_294)">
<path d="M412.161 30.6632C411.823 30.8365 411.44 30.5328 411.508 30.1452L412.234 26.0065L409.151 23.07C408.864 22.7952 409.013 22.293 409.399 22.2387L413.685 21.6297L415.596 17.8436C415.768 17.5023 416.235 17.5023 416.407 17.8436L418.318 21.6297L422.604 22.2387C422.99 22.293 423.139 22.7952 422.85 23.07L419.769 26.0065L420.495 30.1452C420.563 30.5328 420.18 30.8365 419.842 30.6632L416 28.6892L412.16 30.6632H412.161Z" fill="#F56C6C"/>
</g>
<circle cx="413.648" cy="5.32765" r="1" transform="rotate(-20 413.648 5.32765)" fill="#6CBBF5"/>
<path d="M418.518 4.08734C418.801 4.8658 418.399 5.72657 417.621 6.00991C416.843 6.29324 415.982 5.89186 415.698 5.1134C415.415 4.33493 415.816 3.47417 416.595 3.19083C417.373 2.90749 418.234 3.30887 418.518 4.08734Z" fill="#F56C6C"/>
<circle cx="400.82" cy="15.0725" r="1" transform="rotate(-70 400.82 15.0725)" fill="#6CBBF5"/>
<path d="M403 10.545C403.778 10.8284 404.179 11.6891 403.896 12.4676C403.613 13.2461 402.752 13.6474 401.974 13.3641C401.195 13.0808 400.794 12.22 401.077 11.4415C401.36 10.6631 402.221 10.2617 403 10.545Z" fill="#F56C6C"/>
<circle r="1.5" transform="matrix(-0.939693 -0.34202 -0.34202 0.939693 430.285 11.6333)" fill="#6CBBF5"/>
<path d="M426.228 9.6243C426.039 10.1433 426.306 10.7171 426.825 10.906C427.344 11.0949 427.918 10.8273 428.107 10.3083C428.296 9.78937 428.028 9.21552 427.509 9.02663C426.99 8.83774 426.416 9.10533 426.228 9.6243Z" fill="#E6A23C"/>
<circle cx="428.141" cy="37.2669" r="1" transform="rotate(110 428.141 37.2669)" fill="#1883D0"/>
<path d="M426.901 42.1364C426.123 41.853 425.721 40.9923 426.005 40.2138C426.288 39.4353 427.149 39.034 427.927 39.3173C428.706 39.6006 429.107 40.4614 428.824 41.2399C428.54 42.0183 427.68 42.4197 426.901 42.1364Z" fill="#4AC66D"/>
<circle r="1.5" transform="matrix(0.939693 0.34202 0.34202 -0.939693 400.215 35.2636)" fill="#FF55B1"/>
<path d="M404.614 36.3327C404.803 35.8137 404.536 35.2399 404.017 35.051C403.498 34.8621 402.924 35.1297 402.735 35.6487C402.546 36.1677 402.814 36.7415 403.333 36.9304C403.852 37.1193 404.425 36.8517 404.614 36.3327Z" fill="#4AC66D"/>
<circle cx="414.68" cy="44.204" r="1.5" transform="rotate(-25 414.68 44.204)" fill="#6C8AF5"/>
<path d="M418.97 42.7554C419.204 43.2559 418.987 43.8509 418.486 44.0843C417.986 44.3177 417.391 44.1012 417.158 43.6006C416.924 43.1001 417.141 42.5051 417.641 42.2717C418.142 42.0383 418.737 42.2549 418.97 42.7554Z" fill="#F5DE8B"/>
<circle cx="399.181" cy="28.2087" r="1" transform="rotate(-115 399.181 28.2087)" fill="#6CF5F5"/>
<path d="M397.067 23.6769C397.818 23.3268 398.711 23.6517 399.061 24.4025C399.411 25.1533 399.086 26.0457 398.335 26.3959C397.584 26.746 396.692 26.4211 396.342 25.6703C395.992 24.9195 396.317 24.027 397.067 23.6769Z" fill="#6CF57A"/>
<circle cx="435.299" cy="24.9605" r="1.5" transform="rotate(-115 435.299 24.9605)" fill="#BCFF88"/>
<path d="M433.397 20.8822C433.897 20.6488 434.492 20.8653 434.726 21.3659C434.959 21.8664 434.743 22.4614 434.242 22.6948C433.742 22.9282 433.147 22.7117 432.913 22.2111C432.68 21.7106 432.896 21.1156 433.397 20.8822Z" fill="#FF66E7"/>
<g clip-path="url(#clip4_1536_294)">
<path d="M460.338 31.9082C459.928 32.1186 459.462 31.7499 459.545 31.2792L460.427 26.2536L456.684 22.6879C456.334 22.3542 456.516 21.7444 456.985 21.6785L462.189 20.939L464.509 16.3415C464.718 15.9272 465.285 15.9272 465.494 16.3415L467.815 20.939L473.019 21.6785C473.487 21.7444 473.669 22.3542 473.318 22.6879L469.576 26.2536L470.458 31.2792C470.541 31.7499 470.076 32.1186 469.665 31.9082L465 29.5112L460.337 31.9082H460.338Z" fill="#F56C6C"/>
</g>
<circle cx="462.687" cy="6.06637" r="0.999991" transform="rotate(-35 462.687 6.06637)" fill="#6CBBF5"/>
<path d="M467.069 3.60029C467.544 4.27889 467.379 5.2142 466.7 5.68936C466.022 6.16452 465.087 5.9996 464.611 5.321C464.136 4.6424 464.301 3.70709 464.98 3.23193C465.658 2.75677 466.594 2.92169 467.069 3.60029Z" fill="#F56C6C"/>
<circle cx="450.824" cy="15.601" r="1" transform="rotate(-85 450.824 15.601)" fill="#6CBBF5"/>
<path d="M451.757 10.6627C452.582 10.7349 453.193 11.4624 453.121 12.2877C453.048 13.113 452.321 13.7234 451.496 13.6512C450.67 13.579 450.06 12.8515 450.132 12.0262C450.204 11.2009 450.932 10.5905 451.757 10.6627Z" fill="#F56C6C"/>
<circle r="1.5" transform="matrix(-0.996194 -0.0871557 -0.0871557 0.996194 479.08 11.7437)" fill="#6CBBF5"/>
<path d="M474.639 10.8517C474.591 11.4019 474.998 11.8869 475.548 11.935C476.099 11.9832 476.584 11.5762 476.632 11.026C476.68 10.4758 476.273 9.99076 475.723 9.94263C475.172 9.89449 474.687 10.3015 474.639 10.8517Z" fill="#E6A23C"/>
<circle cx="476.871" cy="37.4322" r="1" transform="rotate(95 476.871 37.4322)" fill="#1883D0"/>
<path d="M476.935 42.4579C476.11 42.3857 475.5 41.6582 475.572 40.8329C475.644 40.0076 476.371 39.3972 477.197 39.4694C478.022 39.5416 478.633 40.2691 478.56 41.0944C478.488 41.9197 477.761 42.5301 476.935 42.4579Z" fill="#4AC66D"/>
<circle r="1.5" transform="matrix(0.996194 0.0871557 0.0871557 -0.996194 449.105 36.0078)" fill="#FF55B1"/>
<path d="M453.633 35.903C453.681 35.3528 453.274 34.8678 452.724 34.8196C452.173 34.7715 451.688 35.1785 451.64 35.7287C451.592 36.2788 451.999 36.7639 452.549 36.812C453.099 36.8601 453.584 36.4532 453.633 35.903Z" fill="#4AC66D"/>
<circle cx="463.984" cy="44.4102" r="1.49998" transform="rotate(-40 463.984 44.4102)" fill="#6C8AF5"/>
<path d="M467.752 41.8928C468.107 42.3159 468.052 42.9466 467.629 43.3016C467.205 43.6566 466.575 43.6015 466.22 43.1784C465.865 42.7553 465.92 42.1246 466.343 41.7696C466.766 41.4146 467.397 41.4698 467.752 41.8928Z" fill="#F5DE8B"/>
<circle cx="449.116" cy="27.7323" r="0.99999" transform="rotate(-130 449.116 27.7323)" fill="#6CF5F5"/>
<path d="M445.904 23.8927C446.539 23.3603 447.485 23.443 448.018 24.0776C448.55 24.7122 448.467 25.6584 447.833 26.1909C447.198 26.7234 446.252 26.6406 445.72 26.006C445.187 25.3714 445.27 24.4252 445.904 23.8927Z" fill="#6CF57A"/>
<circle cx="484.131" cy="25.0391" r="1.49998" transform="rotate(-130 484.131 25.0391)" fill="#BCFF88"/>
<path d="M481.241 21.5825C481.664 21.2275 482.295 21.2827 482.65 21.7057C483.005 22.1288 482.95 22.7595 482.527 23.1145C482.104 23.4695 481.473 23.4144 481.118 22.9913C480.763 22.5682 480.818 21.9375 481.241 21.5825Z" fill="#FF66E7"/>
<g clip-path="url(#clip5_1536_294)">
<path d="M508.515 33.3036C508.032 33.5511 507.485 33.1174 507.582 32.5636L508.62 26.6511L504.216 22.4561C503.805 22.0636 504.019 21.3461 504.57 21.2686L510.692 20.3986L513.422 14.9899C513.669 14.5024 514.335 14.5024 514.581 14.9899L517.311 20.3986L523.434 21.2686C523.985 21.3461 524.199 22.0636 523.786 22.4561L519.384 26.6511L520.421 32.5636C520.519 33.1174 519.971 33.5511 519.489 33.3036L514 30.4836L508.514 33.3036H508.515Z" fill="#F56C6C"/>
</g>
<circle cx="511.649" cy="5.62253" r="0.999991" transform="rotate(-35 511.649 5.62253)" fill="#6CBBF5"/>
<path d="M516.031 3.15644C516.506 3.83504 516.341 4.77035 515.663 5.24551C514.984 5.72068 514.049 5.55576 513.573 4.87715C513.098 4.19855 513.263 3.26324 513.942 2.78808C514.62 2.31292 515.556 2.47784 516.031 3.15644Z" fill="#F56C6C"/>
<circle cx="499.482" cy="15.4274" r="1" transform="rotate(-85 499.482 15.4274)" fill="#6CBBF5"/>
<path d="M500.415 10.4891C501.24 10.5613 501.85 11.2888 501.778 12.1141C501.706 12.9394 500.978 13.5499 500.153 13.4777C499.328 13.4055 498.717 12.6779 498.79 11.8526C498.862 11.0274 499.589 10.4169 500.415 10.4891Z" fill="#F56C6C"/>
<circle r="1.5" transform="matrix(-0.996194 -0.0871557 -0.0871557 0.996194 528.28 11.4253)" fill="#6CBBF5"/>
<path d="M523.84 10.5336C523.792 11.0837 524.199 11.5688 524.749 11.6169C525.299 11.665 525.784 11.258 525.832 10.7079C525.88 10.1577 525.473 9.67265 524.923 9.62451C524.373 9.57638 523.888 9.98337 523.84 10.5336Z" fill="#E6A23C"/>
<circle cx="526.088" cy="37.8197" r="1" transform="rotate(95 526.088 37.8197)" fill="#1883D0"/>
<path d="M526.151 42.8456C525.326 42.7734 524.716 42.0459 524.788 41.2206C524.86 40.3953 525.588 39.7849 526.413 39.8571C527.238 39.9293 527.849 40.6568 527.776 41.4821C527.704 42.3074 526.977 42.9178 526.151 42.8456Z" fill="#4AC66D"/>
<circle r="1.5" transform="matrix(0.996194 0.0871557 0.0871557 -0.996194 497.719 36.2226)" fill="#FF55B1"/>
<path d="M502.246 36.1181C502.295 35.5679 501.888 35.0828 501.337 35.0347C500.787 34.9866 500.302 35.3936 500.254 35.9437C500.206 36.4939 500.613 36.979 501.163 37.0271C501.713 37.0752 502.198 36.6682 502.246 36.1181Z" fill="#4AC66D"/>
<circle cx="512.997" cy="44.847" r="1.49998" transform="rotate(-40 512.997 44.847)" fill="#6C8AF5"/>
<path d="M516.765 42.3294C517.12 42.7524 517.065 43.3832 516.641 43.7382C516.218 44.0932 515.588 44.038 515.233 43.6149C514.878 43.1918 514.933 42.5611 515.356 42.2061C515.779 41.8511 516.41 41.9063 516.765 42.3294Z" fill="#F5DE8B"/>
<circle cx="497.774" cy="27.8195" r="0.99999" transform="rotate(-130 497.774 27.8195)" fill="#6CF5F5"/>
<path d="M494.562 23.9799C495.197 23.4474 496.143 23.5302 496.675 24.1648C497.208 24.7994 497.125 25.7455 496.491 26.278C495.856 26.8105 494.91 26.7277 494.377 26.0931C493.845 25.4585 493.928 24.5124 494.562 23.9799Z" fill="#6CF57A"/>
<circle cx="533.474" cy="24.9759" r="1.49998" transform="rotate(-130 533.474 24.9759)" fill="#BCFF88"/>
<path d="M530.584 21.5192C531.007 21.1642 531.637 21.2194 531.992 21.6425C532.347 22.0656 532.292 22.6963 531.869 23.0513C531.446 23.4063 530.815 23.3511 530.46 22.9281C530.105 22.505 530.16 21.8742 530.584 21.5192Z" fill="#FF66E7"/>
<g clip-path="url(#clip6_1536_294)">
<path d="M558.515 33.3036C558.032 33.5511 557.485 33.1174 557.582 32.5636L558.62 26.6511L554.216 22.4561C553.805 22.0636 554.019 21.3461 554.57 21.2686L560.692 20.3986L563.422 14.9899C563.669 14.5024 564.335 14.5024 564.581 14.9899L567.311 20.3986L573.434 21.2686C573.985 21.3461 574.199 22.0636 573.786 22.4561L569.384 26.6511L570.421 32.5636C570.519 33.1174 569.971 33.5511 569.489 33.3036L564 30.4836L558.514 33.3036H558.515Z" fill="#F56C6C"/>
</g>
<ellipse rx="0.833636" ry="0.814189" transform="matrix(0.837121 -0.547017 0.600159 0.799881 558.973 5.59954)" fill="#6CBBF5"/>
<path d="M565.017 2.30243C565.557 3.02179 565.37 4.01327 564.599 4.51697C563.828 5.02066 562.766 4.84584 562.226 4.12648C561.686 3.40713 561.874 2.41565 562.644 1.91195C563.415 1.40825 564.478 1.58307 565.017 2.30243Z" fill="#F56C6C"/>
<ellipse rx="0.795482" ry="0.851505" transform="matrix(0.0933396 -0.995634 0.996683 0.0813757 545.088 16.3322)" fill="#6CBBF5"/>
<path d="M547.543 10.3255C548.48 10.4021 549.174 11.1733 549.092 12.0481C549.01 12.923 548.183 13.5701 547.246 13.4936C546.308 13.417 545.615 12.6458 545.697 11.771C545.779 10.8961 546.605 10.249 547.543 10.3255Z" fill="#F56C6C"/>
<ellipse rx="1.70301" ry="1.59096" transform="matrix(-0.996683 -0.0813757 -0.0933396 0.995634 578.532 10.8087)" fill="#6CBBF5"/>
<path d="M572.944 8.58702C572.903 9.02443 573.25 9.41005 573.719 9.44832C574.187 9.48659 574.601 9.16302 574.642 8.7256C574.683 8.28819 574.336 7.90257 573.867 7.8643C573.398 7.82603 572.985 8.1496 572.944 8.58702Z" fill="#E6A23C"/>
<ellipse rx="0.795482" ry="0.851505" transform="matrix(-0.0933396 0.995634 -0.996683 -0.0813757 577.435 37.6856)" fill="#1883D0"/>
<path d="M576.678 43.831C575.74 43.7544 575.047 42.9832 575.129 42.1084C575.211 41.2335 576.037 40.5864 576.975 40.6629C577.912 40.7395 578.606 41.5107 578.523 42.3855C578.441 43.2604 577.615 43.9075 576.678 43.831Z" fill="#4AC66D"/>
<ellipse rx="1.70301" ry="1.59096" transform="matrix(0.996683 0.0813757 0.0933396 -0.995634 544.54 36.8903)" fill="#FF55B1"/>
<path d="M550.276 37.5282C550.317 37.0908 549.971 36.7052 549.502 36.6669C549.033 36.6286 548.62 36.9522 548.579 37.3896C548.538 37.827 548.885 38.2127 549.353 38.2509C549.822 38.2892 550.235 37.9656 550.276 37.5282Z" fill="#4AC66D"/>
<ellipse rx="1.65778" ry="1.63804" transform="matrix(0.78733 -0.616532 0.668612 0.743612 562.006 45.76)" fill="#6C8AF5"/>
<path d="M567.17 42.583C567.472 42.9194 567.425 43.4209 567.065 43.7031C566.705 43.9854 566.167 43.9415 565.865 43.6051C565.562 43.2688 565.609 42.7673 565.97 42.4851C566.33 42.2028 566.868 42.2467 567.17 42.583Z" fill="#F5DE8B"/>
<ellipse rx="0.819019" ry="0.828892" transform="matrix(-0.668612 -0.743612 0.78733 -0.616532 545.909 29.3108)" fill="#6CF5F5"/>
<path d="M541.305 24.3936C542.026 23.8291 543.101 23.9169 543.706 24.5896C544.311 25.2623 544.216 26.2653 543.496 26.8297C542.775 27.3942 541.7 27.3065 541.095 26.6337C540.49 25.961 540.584 24.9581 541.305 24.3936Z" fill="#6CF57A"/>
<ellipse rx="1.63804" ry="1.65778" transform="matrix(-0.668612 -0.743612 0.78733 -0.616532 584.6 24.682)" fill="#BCFF88"/>
<path d="M580.543 20.3737C580.904 20.0914 581.441 20.1353 581.743 20.4717C582.046 20.808 581.999 21.3095 581.638 21.5917C581.278 21.874 580.741 21.8301 580.438 21.4938C580.136 21.1574 580.183 20.6559 580.543 20.3737Z" fill="#FF66E7"/>
<g clip-path="url(#clip7_1536_294)">
<path d="M606.762 34.3587C606.253 34.6197 605.675 34.1622 605.778 33.5782L606.872 27.3426L602.228 22.9183C601.794 22.5044 602.02 21.7477 602.601 21.6659L609.058 20.7484L611.937 15.0441C612.197 14.5299 612.9 14.5299 613.16 15.0441L616.039 20.7484L622.496 21.6659C623.077 21.7477 623.303 22.5044 622.868 22.9183L618.224 27.3426L619.319 33.5782C619.422 34.1622 618.844 34.6197 618.335 34.3587L612.547 31.3846L606.76 34.3587H606.762Z" fill="#F56C6C"/>
</g>
<ellipse rx="0.828181" ry="0.812945" transform="matrix(0.588117 -0.782364 0.855661 0.558085 608.801 6.52987)" fill="#6CBBF5"/>
<path d="M613.258 1.52803C614.026 2.02916 614.213 3.0156 613.675 3.73129C613.137 4.44699 612.078 4.62092 611.31 4.11979C610.541 3.61865 610.355 2.63222 610.893 1.91652C611.431 1.20083 612.49 1.02689 613.258 1.52803Z" fill="#F56C6C"/>
<ellipse rx="0.798362" ry="0.842248" transform="matrix(-0.275293 -0.957004 0.973872 -0.243067 595.21 16.7407)" fill="#6CBBF5"/>
<path d="M595.315 10.3452C596.221 10.1191 597.152 10.6199 597.395 11.4638C597.637 12.3078 597.1 13.1752 596.194 13.4013C595.288 13.6275 594.356 13.1267 594.114 12.2827C593.871 11.4388 594.409 10.5713 595.315 10.3452Z" fill="#F56C6C"/>
<ellipse rx="1.6845" ry="1.59672" transform="matrix(-0.973872 0.243067 0.275293 0.957004 627.605 10.2459)" fill="#6CBBF5"/>
<path d="M621.559 9.9435C621.681 10.3655 622.146 10.6159 622.599 10.5028C623.052 10.3897 623.321 9.95602 623.2 9.53406C623.078 9.11209 622.613 8.86168 622.16 8.97474C621.707 9.08781 621.438 9.52154 621.559 9.9435Z" fill="#E6A23C"/>
<ellipse rx="0.798362" ry="0.842248" transform="matrix(0.275293 0.957004 -0.973872 0.243067 625.363 37.6001)" fill="#1883D0"/>
<path d="M626.899 43.5862C625.993 43.8123 625.061 43.3115 624.819 42.4676C624.576 41.6236 625.113 40.7562 626.019 40.5301C626.925 40.3039 627.857 40.8047 628.099 41.6487C628.342 42.4926 627.805 43.3601 626.899 43.5862Z" fill="#4AC66D"/>
<ellipse rx="1.6845" ry="1.59672" transform="matrix(0.973872 -0.243067 -0.275293 -0.957004 593.72 37.4695)" fill="#FF55B1"/>
<path d="M599.326 36.2442C599.205 35.8223 598.739 35.5719 598.286 35.6849C597.833 35.798 597.564 36.2317 597.686 36.6537C597.807 37.0757 598.273 37.3261 598.726 37.213C599.179 37.0999 599.448 36.6662 599.326 36.2442Z" fill="#4AC66D"/>
<ellipse rx="1.64891" ry="1.63344" transform="matrix(0.514992 -0.830869 0.90044 0.484246 611.393 46.1431)" fill="#6C8AF5"/>
<path d="M615.069 41.5333C615.475 41.7517 615.615 42.2355 615.38 42.6138C615.146 42.9921 614.626 43.1217 614.22 42.9033C613.814 42.6849 613.675 42.2011 613.909 41.8228C614.144 41.4445 614.663 41.3148 615.069 41.5333Z" fill="#F5DE8B"/>
<ellipse rx="0.816721" ry="0.824457" transform="matrix(-0.90044 -0.484246 0.514992 -0.830869 595.705 28.4068)" fill="#6CF5F5"/>
<path d="M589.596 25.2714C590.065 24.5147 591.104 24.2555 591.916 24.6923C592.728 25.1292 593.007 26.0967 592.538 26.8534C592.069 27.61 591.03 27.8693 590.218 27.4324C589.405 26.9955 589.127 26.028 589.596 25.2714Z" fill="#6CF57A"/>
<ellipse rx="1.63344" ry="1.64891" transform="matrix(-0.90044 -0.484246 0.514992 -0.830869 633.933 24.2496)" fill="#BCFF88"/>
<path d="M628.56 21.5101C628.794 21.1318 629.314 21.0021 629.72 21.2206C630.126 21.439 630.265 21.9227 630.031 22.3011C629.796 22.6794 629.277 22.809 628.871 22.5906C628.465 22.3722 628.325 21.8884 628.56 21.5101Z" fill="#FF66E7"/>
<g clip-path="url(#clip8_1536_294)">
<path d="M656.31 33.4254C655.849 33.6617 655.326 33.2476 655.42 32.7191L656.41 27.0756L652.206 23.0715C651.814 22.6968 652.018 22.012 652.544 21.938L658.388 21.1076L660.994 15.9449C661.229 15.4796 661.865 15.4796 662.1 15.9449L664.706 21.1076L670.55 21.938C671.076 22.012 671.28 22.6968 670.886 23.0715L666.684 27.0756L667.674 32.7191C667.767 33.2476 667.245 33.6617 666.784 33.4254L661.545 30.7337L656.308 33.4254H656.31Z" fill="#F56C6C"/>
</g>
<ellipse rx="0.828181" ry="0.812945" transform="matrix(0.588117 -0.782364 0.855661 0.558085 657.801 6.52987)" fill="#6CBBF5"/>
<path d="M662.258 1.52803C663.026 2.02916 663.213 3.0156 662.675 3.73129C662.137 4.44699 661.078 4.62092 660.31 4.11979C659.541 3.61865 659.355 2.63222 659.893 1.91652C660.431 1.20083 661.49 1.02689 662.258 1.52803Z" fill="#F56C6C"/>
<ellipse rx="0.798362" ry="0.842248" transform="matrix(-0.275293 -0.957004 0.973872 -0.243067 644.21 16.7407)" fill="#6CBBF5"/>
<path d="M644.315 10.3452C645.221 10.1191 646.152 10.6199 646.395 11.4638C646.637 12.3078 646.1 13.1752 645.194 13.4013C644.288 13.6275 643.356 13.1267 643.114 12.2827C642.871 11.4388 643.409 10.5713 644.315 10.3452Z" fill="#F56C6C"/>
<ellipse rx="1.6845" ry="1.59672" transform="matrix(-0.973872 0.243067 0.275293 0.957004 676.605 10.2459)" fill="#6CBBF5"/>
<path d="M670.559 9.9435C670.681 10.3655 671.146 10.6159 671.599 10.5028C672.052 10.3897 672.321 9.95602 672.2 9.53406C672.078 9.11209 671.613 8.86168 671.16 8.97474C670.707 9.08781 670.438 9.52154 670.559 9.9435Z" fill="#E6A23C"/>
<ellipse rx="0.798362" ry="0.842248" transform="matrix(0.275293 0.957004 -0.973872 0.243067 674.363 37.6001)" fill="#1883D0"/>
<path d="M675.899 43.5862C674.993 43.8123 674.061 43.3115 673.819 42.4676C673.576 41.6236 674.113 40.7562 675.019 40.5301C675.925 40.3039 676.857 40.8047 677.099 41.6487C677.342 42.4926 676.805 43.3601 675.899 43.5862Z" fill="#4AC66D"/>
<ellipse rx="1.6845" ry="1.59672" transform="matrix(0.973872 -0.243067 -0.275293 -0.957004 642.72 37.4695)" fill="#FF55B1"/>
<path d="M648.326 36.2442C648.205 35.8223 647.739 35.5719 647.286 35.6849C646.833 35.798 646.564 36.2317 646.686 36.6537C646.807 37.0757 647.273 37.3261 647.726 37.213C648.179 37.0999 648.448 36.6662 648.326 36.2442Z" fill="#4AC66D"/>
<ellipse rx="1.64891" ry="1.63344" transform="matrix(0.514992 -0.830869 0.90044 0.484246 660.393 46.1431)" fill="#6C8AF5"/>
<path d="M664.069 41.5333C664.475 41.7517 664.614 42.2355 664.38 42.6138C664.146 42.9921 663.626 43.1217 663.22 42.9033C662.814 42.6849 662.675 42.2011 662.909 41.8228C663.144 41.4445 663.663 41.3148 664.069 41.5333Z" fill="#F5DE8B"/>
<ellipse rx="0.816722" ry="0.824457" transform="matrix(-0.90044 -0.484246 0.514992 -0.830869 644.705 28.4068)" fill="#6CF5F5"/>
<path d="M638.596 25.2714C639.065 24.5147 640.104 24.2555 640.916 24.6923C641.728 25.1292 642.007 26.0967 641.538 26.8534C641.069 27.61 640.03 27.8693 639.218 27.4324C638.405 26.9955 638.127 26.028 638.596 25.2714Z" fill="#6CF57A"/>
<ellipse rx="1.63344" ry="1.64891" transform="matrix(-0.90044 -0.484246 0.514992 -0.830869 682.933 24.2496)" fill="#BCFF88"/>
<path d="M677.56 21.5101C677.794 21.1318 678.314 21.0021 678.72 21.2206C679.126 21.439 679.265 21.9227 679.031 22.3011C678.796 22.6794 678.277 22.809 677.871 22.5906C677.465 22.3722 677.325 21.8884 677.56 21.5101Z" fill="#FF66E7"/>
<g clip-path="url(#clip9_1536_294)">
<path d="M705.698 32.9501C705.264 33.1729 704.771 32.7825 704.859 32.2841L705.793 26.9629L701.829 23.1874C701.459 22.8341 701.652 22.1884 702.148 22.1186L707.658 21.3356L710.115 16.4677C710.337 16.029 710.936 16.029 711.158 16.4677L713.615 21.3356L719.125 22.1186C719.621 22.1884 719.814 22.8341 719.442 23.1874L715.48 26.9629L716.414 32.2841C716.502 32.7825 716.009 33.1729 715.575 32.9501L710.635 30.4121L705.697 32.9501H705.698Z" fill="#F56C6C"/>
</g>
<ellipse rx="0.498614" ry="0.489441" transform="matrix(0.588117 -0.782364 0.855661 0.558085 706.169 6.53564)" fill="#6CBBF5"/>
<path d="M710.408 1.77277C711.009 2.165 711.147 2.9482 710.716 3.5221C710.284 4.09601 709.447 4.24328 708.846 3.85106C708.244 3.45883 708.107 2.67563 708.538 2.10173C708.969 1.52782 709.807 1.38055 710.408 1.77277Z" fill="#F56C6C"/>
<ellipse rx="0.472178" ry="0.498133" transform="matrix(-0.275293 -0.957004 0.973872 -0.243067 692.803 17.0647)" fill="#6CBBF5"/>
<path d="M692.934 10.9255C693.631 10.7517 694.356 11.1701 694.555 11.8601C694.753 12.5501 694.35 13.2503 693.653 13.4242C692.956 13.5981 692.231 13.1797 692.032 12.4897C691.834 11.7997 692.238 11.0994 692.934 10.9255Z" fill="#F56C6C"/>
<ellipse rx="1.29515" ry="1.30547" transform="matrix(-0.973872 0.243067 0.275293 0.957004 725.742 9.80096)" fill="#6CBBF5"/>
<path d="M719.986 9.42116C720.063 9.68654 720.342 9.84746 720.61 9.78059C720.878 9.71372 721.033 9.44438 720.956 9.179C720.88 8.91362 720.601 8.7527 720.333 8.81957C720.065 8.88644 719.91 9.15578 719.986 9.42116Z" fill="#E6A23C"/>
<ellipse rx="0.472178" ry="0.498133" transform="matrix(0.275293 0.957004 -0.973872 0.243067 723.447 37.1325)" fill="#1883D0"/>
<path d="M724.956 42.8623C724.259 43.0362 723.534 42.6178 723.335 41.9278C723.137 41.2378 723.54 40.5375 724.237 40.3636C724.934 40.1898 725.659 40.6082 725.858 41.2982C726.056 41.9882 725.652 42.6884 724.956 42.8623Z" fill="#4AC66D"/>
<ellipse rx="1.37723" ry="1.30547" transform="matrix(0.973872 -0.243067 -0.275293 -0.957004 691.339 37.7514)" fill="#FF55B1"/>
<path d="M696.637 36.6082C696.561 36.3428 696.268 36.1853 695.983 36.2564C695.698 36.3275 695.529 36.6003 695.606 36.8657C695.682 37.1311 695.975 37.2885 696.26 37.2174C696.545 37.1463 696.714 36.8736 696.637 36.6082Z" fill="#4AC66D"/>
<ellipse rx="1.28357" ry="1.27153" transform="matrix(0.514992 -0.830869 0.90044 0.484246 708.717 46.1996)" fill="#6C8AF5"/>
<path d="M712.272 41.8525C712.515 41.9833 712.598 42.273 712.458 42.4995C712.318 42.726 712.007 42.8036 711.763 42.6729C711.52 42.5421 711.437 42.2524 711.577 42.0259C711.718 41.7993 712.029 41.7217 712.272 41.8525Z" fill="#F5DE8B"/>
<ellipse rx="0.506696" ry="0.511495" transform="matrix(-0.90044 -0.484246 0.514992 -0.830869 693.661 28.7452)" fill="#6CF5F5"/>
<path d="M687.922 25.8152C688.3 25.2049 689.119 24.9859 689.752 25.326C690.384 25.666 690.59 26.4364 690.212 27.0467C689.833 27.6569 689.014 27.8759 688.382 27.5359C687.75 27.1958 687.544 26.4254 687.922 25.8152Z" fill="#6CF57A"/>
<ellipse rx="1.31741" ry="1.32989" transform="matrix(-0.90044 -0.484246 0.514992 -0.830869 731.892 24.596)" fill="#BCFF88"/>
<path d="M726.795 21.9986C726.941 21.7639 727.263 21.6835 727.515 21.819C727.767 21.9545 727.853 22.2546 727.708 22.4893C727.562 22.724 727.24 22.8045 726.988 22.6689C726.736 22.5334 726.65 22.2333 726.795 21.9986Z" fill="#FF66E7"/>
<g clip-path="url(#clip10_1536_294)">
<path d="M754.472 31.9849C754.062 32.1953 753.597 31.8266 753.68 31.3559L754.562 26.3303L750.818 22.7645C750.469 22.4309 750.651 21.821 751.119 21.7551L756.323 21.0156L758.644 16.4182C758.853 16.0038 759.419 16.0038 759.629 16.4182L761.949 21.0156L767.153 21.7551C767.622 21.821 767.804 22.4309 767.453 22.7645L763.711 26.3303L764.593 31.3559C764.676 31.8266 764.21 32.1953 763.8 31.9849L759.135 29.5879L754.471 31.9849H754.472Z" fill="#F56C6C"/>
</g>
<ellipse rx="0.498614" ry="0.489441" transform="matrix(0.588117 -0.782364 0.855661 0.558085 755.169 6.53564)" fill="#6CBBF5"/>
<path d="M759.408 1.77277C760.009 2.165 760.147 2.9482 759.716 3.5221C759.284 4.09601 758.447 4.24328 757.846 3.85106C757.244 3.45883 757.107 2.67563 757.538 2.10173C757.969 1.52782 758.807 1.38055 759.408 1.77277Z" fill="#1883D0"/>
<ellipse rx="0.472178" ry="0.498133" transform="matrix(-0.275293 -0.957004 0.973872 -0.243067 741.803 17.0647)" fill="#6CBBF5"/>
<path d="M741.934 10.9255C742.631 10.7517 743.356 11.1701 743.555 11.8601C743.753 12.5501 743.35 13.2503 742.653 13.4242C741.956 13.5981 741.231 13.1797 741.032 12.4897C740.834 11.7997 741.238 11.0994 741.934 10.9255Z" fill="#1883D0"/>
<ellipse rx="1.29515" ry="1.30547" transform="matrix(-0.973872 0.243067 0.275293 0.957004 774.742 9.80096)" fill="#6CBBF5"/>
<path d="M768.986 9.42116C769.063 9.68654 769.342 9.84746 769.61 9.78059C769.878 9.71372 770.033 9.44438 769.956 9.179C769.88 8.91362 769.601 8.7527 769.333 8.81957C769.065 8.88644 768.91 9.15578 768.986 9.42116Z" fill="#E6A23C"/>
<ellipse rx="0.472178" ry="0.498133" transform="matrix(0.275293 0.957004 -0.973872 0.243067 772.447 37.1325)" fill="#1883D0"/>
<path d="M773.956 42.8623C773.259 43.0362 772.534 42.6178 772.335 41.9278C772.137 41.2378 772.54 40.5375 773.237 40.3636C773.934 40.1898 774.659 40.6082 774.858 41.2982C775.056 41.9882 774.652 42.6884 773.956 42.8623Z" fill="#4AC66D"/>
<ellipse rx="1.37723" ry="1.30547" transform="matrix(0.973872 -0.243067 -0.275293 -0.957004 740.339 37.7514)" fill="#6C8AF5"/>
<path d="M745.637 36.6082C745.561 36.3428 745.268 36.1853 744.983 36.2564C744.698 36.3275 744.529 36.6003 744.606 36.8657C744.682 37.1311 744.975 37.2885 745.26 37.2174C745.545 37.1463 745.714 36.8736 745.637 36.6082Z" fill="#4AC66D"/>
<ellipse rx="1.28357" ry="1.27153" transform="matrix(0.514992 -0.830869 0.90044 0.484246 757.717 46.1996)" fill="#6C8AF5"/>
<path d="M761.272 41.8525C761.515 41.9833 761.598 42.273 761.458 42.4995C761.318 42.726 761.007 42.8036 760.763 42.6729C760.52 42.5421 760.437 42.2524 760.577 42.0259C760.718 41.7993 761.029 41.7217 761.272 41.8525Z" fill="#F5DE8B"/>
<ellipse rx="0.506696" ry="0.511495" transform="matrix(-0.90044 -0.484246 0.514992 -0.830869 742.661 28.7452)" fill="#6CF5F5"/>
<path d="M736.922 25.8152C737.3 25.2049 738.119 24.9859 738.752 25.326C739.384 25.666 739.59 26.4364 739.212 27.0467C738.833 27.6569 738.014 27.8759 737.382 27.5359C736.75 27.1958 736.544 26.4254 736.922 25.8152Z" fill="#1883D0"/>
<ellipse rx="1.31741" ry="1.32989" transform="matrix(-0.90044 -0.484246 0.514992 -0.830869 780.892 24.596)" fill="#BCFF88"/>
<path d="M775.795 21.9986C775.941 21.7639 776.263 21.6835 776.515 21.819C776.767 21.9545 776.853 22.2546 776.708 22.4893C776.562 22.724 776.24 22.8045 775.988 22.6689C775.736 22.5334 775.65 22.2333 775.795 21.9986Z" fill="#FF66E7"/>
<g clip-path="url(#clip11_1536_294)">
<path d="M803.472 31.9849C803.062 32.1953 802.597 31.8266 802.68 31.3559L803.562 26.3303L799.818 22.7645C799.469 22.4309 799.651 21.821 800.119 21.7551L805.323 21.0156L807.644 16.4182C807.853 16.0038 808.419 16.0038 808.629 16.4182L810.949 21.0156L816.153 21.7551C816.622 21.821 816.804 22.4309 816.453 22.7645L812.711 26.3303L813.593 31.3559C813.676 31.8266 813.21 32.1953 812.8 31.9849L808.135 29.5879L803.471 31.9849H803.472Z" fill="#F56C6C"/>
</g>
<ellipse rx="0.255425" ry="0.24472" transform="matrix(0.588117 -0.782364 0.855661 0.558085 803.816 6.58933)" fill="#6CBBF5"/>
<path d="M808.408 1.77277C809.009 2.165 809.147 2.9482 808.716 3.5221C808.284 4.09601 807.447 4.24328 806.846 3.85106C806.244 3.45883 806.107 2.67563 806.538 2.10173C806.969 1.52782 807.807 1.38055 808.408 1.77277Z" fill="#1883D0"/>
<ellipse rx="0.236089" ry="0.249067" transform="matrix(-0.275293 -0.957004 0.973872 -0.243067 790.625 17.3512)" fill="#6CBBF5"/>
<path d="M790.934 10.9255C791.631 10.7517 792.356 11.1701 792.555 11.8601C792.753 12.5501 792.35 13.2503 791.653 13.4242C790.956 13.5981 790.231 13.1797 790.032 12.4897C789.834 11.7997 790.238 11.0994 790.934 10.9255Z" fill="#1883D0"/>
<ellipse rx="1.29515" ry="1.30547" transform="matrix(-0.973872 0.243067 0.275293 0.957004 823.742 9.80072)" fill="#6CBBF5"/>
<path d="M818.402 9.05958C818.44 9.19227 818.58 9.27273 818.714 9.2393C818.848 9.20586 818.926 9.07119 818.887 8.9385C818.849 8.80581 818.71 8.72535 818.576 8.75878C818.442 8.79222 818.364 8.92689 818.402 9.05958Z" fill="#E6A23C"/>
<ellipse rx="0.236089" ry="0.249067" transform="matrix(0.275293 0.957004 -0.973872 0.243067 821.624 36.846)" fill="#1883D0"/>
<path d="M822.956 42.8623C822.259 43.0362 821.534 42.6178 821.335 41.9278C821.137 41.2378 821.54 40.5375 822.237 40.3636C822.934 40.1898 823.659 40.6082 823.858 41.2982C824.056 41.9882 823.652 42.6884 822.956 42.8623Z" fill="#4AC66D"/>
<ellipse rx="1.37723" ry="1.30547" transform="matrix(0.973872 -0.243067 -0.275293 -0.957004 789.339 37.7514)" fill="#6C8AF5"/>
<path d="M794.191 36.9772C794.152 36.8445 794.006 36.7657 793.864 36.8013C793.721 36.8369 793.637 36.9732 793.675 37.1059C793.713 37.2386 793.859 37.3174 794.002 37.2818C794.144 37.2463 794.229 37.1099 794.191 36.9772Z" fill="#4AC66D"/>
<ellipse rx="1.28357" ry="1.27153" transform="matrix(0.514992 -0.830869 0.90044 0.484246 806.717 46.1996)" fill="#6C8AF5"/>
<path d="M809.797 42.1443C809.919 42.2097 809.961 42.3545 809.89 42.4678C809.82 42.581 809.665 42.6198 809.543 42.5544C809.422 42.489 809.38 42.3442 809.45 42.2309C809.52 42.1177 809.676 42.0789 809.797 42.1443Z" fill="#F5DE8B"/>
<ellipse rx="0.253348" ry="0.255747" transform="matrix(-0.90044 -0.484246 0.514992 -0.830869 791.758 29.0804)" fill="#6CF5F5"/>
<path d="M785.922 25.8152C786.3 25.2049 787.119 24.9859 787.752 25.326C788.384 25.666 788.59 26.4364 788.212 27.0467C787.833 27.6569 787.014 27.8759 786.382 27.5359C785.75 27.1958 785.544 26.4254 785.922 25.8152Z" fill="#1883D0"/>
<ellipse rx="1.31741" ry="1.32989" transform="matrix(-0.90044 -0.484246 0.514992 -0.830869 829.892 24.596)" fill="#BCFF88"/>
<path d="M825.12 22.4564C825.193 22.3391 825.354 22.2989 825.48 22.3666C825.606 22.4344 825.649 22.5845 825.576 22.7018C825.504 22.8192 825.342 22.8594 825.216 22.7916C825.09 22.7239 825.047 22.5738 825.12 22.4564Z" fill="#FF66E7"/>
<g clip-path="url(#clip12_1536_294)">
<path d="M852.472 31.9849C852.062 32.1953 851.597 31.8266 851.68 31.3559L852.562 26.3303L848.818 22.7645C848.469 22.4309 848.651 21.821 849.119 21.7551L854.323 21.0156L856.644 16.4182C856.853 16.0038 857.419 16.0038 857.629 16.4182L859.949 21.0156L865.153 21.7551C865.622 21.821 865.804 22.4309 865.453 22.7645L861.711 26.3303L862.593 31.3559C862.676 31.8266 862.21 32.1953 861.8 31.9849L857.135 29.5879L852.471 31.9849H852.472Z" fill="#F56C6C"/>
</g>
<path d="M857.408 1.77253C858.009 2.16476 858.147 2.94796 857.716 3.52186C857.284 4.09576 856.447 4.24304 855.846 3.85081C855.244 3.45859 855.107 2.67539 855.538 2.10148C855.969 1.52758 856.807 1.3803 857.408 1.77253Z" fill="#1883D0"/>
<path d="M839.934 10.9258C840.631 10.7519 841.356 11.1703 841.555 11.8603C841.753 12.5503 841.35 13.2506 840.653 13.4245C839.956 13.5983 839.231 13.1799 839.032 12.4899C838.834 11.7999 839.238 11.0996 839.934 10.9258Z" fill="#1883D0"/>
<ellipse rx="1.29515" ry="1.30547" transform="matrix(-0.973872 0.243067 0.275293 0.957004 872.742 9.80072)" fill="#6CBBF5"/>
<path d="M871.956 42.8623C871.259 43.0362 870.534 42.6178 870.335 41.9278C870.137 41.2378 870.54 40.5375 871.237 40.3636C871.934 40.1898 872.659 40.6082 872.858 41.2982C873.056 41.9882 872.652 42.6884 871.956 42.8623Z" fill="#4AC66D"/>
<ellipse rx="1.37723" ry="1.30547" transform="matrix(0.973872 -0.243067 -0.275293 -0.957004 838.339 37.7514)" fill="#6C8AF5"/>
<ellipse rx="1.28357" ry="1.27153" transform="matrix(0.514992 -0.830869 0.90044 0.484246 855.717 46.1996)" fill="#6C8AF5"/>
<path d="M834.922 25.8152C835.3 25.2049 836.119 24.9859 836.752 25.326C837.384 25.666 837.59 26.4364 837.212 27.0467C836.833 27.6569 836.014 27.8759 835.382 27.5359C834.75 27.1958 834.544 26.4254 834.922 25.8152Z" fill="#1883D0"/>
<ellipse rx="1.31741" ry="1.32989" transform="matrix(-0.90044 -0.484246 0.514992 -0.830869 878.892 24.596)" fill="#BCFF88"/>
<g clip-path="url(#clip13_1536_294)">
<path d="M902.29 31.8981C901.904 32.0961 901.466 31.7491 901.544 31.3061L902.374 26.5761L898.851 23.2201C898.522 22.9061 898.693 22.3321 899.134 22.2701L904.032 21.5741L906.216 17.2471C906.413 16.8571 906.946 16.8571 907.143 17.2471L909.327 21.5741L914.225 22.2701C914.666 22.3321 914.837 22.9061 914.507 23.2201L910.985 26.5761L911.815 31.3061C911.893 31.7491 911.455 32.0961 911.069 31.8981L906.678 29.6421L902.289 31.8981H902.29Z" fill="#F56C6C"/>
</g>
<g opacity="0.8">
<path d="M905.708 2.00133C906.171 2.30304 906.277 2.9055 905.945 3.34697C905.613 3.78843 904.969 3.90172 904.507 3.60001C904.044 3.2983 903.938 2.69583 904.27 2.25437C904.602 1.81291 905.246 1.69962 905.708 2.00133Z" fill="#1883D0"/>
<path d="M888.721 11.4879C889.257 11.3541 889.815 11.676 889.968 12.2068C890.12 12.7375 889.81 13.2762 889.274 13.4099C888.738 13.5437 888.18 13.2218 888.027 12.6911C887.875 12.1603 888.185 11.6216 888.721 11.4879Z" fill="#1883D0"/>
<ellipse rx="0.996267" ry="1.0042" transform="matrix(-0.973872 0.243067 0.275293 0.957004 921.862 9.35285)" fill="#6CBBF5"/>
<path d="M920.993 42.1261C920.457 42.2599 919.899 41.938 919.746 41.4073C919.594 40.8765 919.904 40.3378 920.44 40.2041C920.976 40.0703 921.534 40.3922 921.687 40.9229C921.84 41.4537 921.529 41.9924 920.993 42.1261Z" fill="#4AC66D"/>
<ellipse rx="0.996267" ry="0.944355" transform="matrix(0.973872 -0.243067 -0.275293 -0.957004 886.98 38.1024)" fill="#6C8AF5"/>
<ellipse rx="1.02299" ry="1.01339" transform="matrix(0.514992 -0.830869 0.90044 0.484246 904.263 46.2042)" fill="#6C8AF5"/>
<path d="M884.204 26.2674C884.495 25.798 885.126 25.6295 885.612 25.8911C886.098 26.1527 886.257 26.7453 885.966 27.2147C885.675 27.6842 885.045 27.8526 884.558 27.5911C884.072 27.3295 883.913 26.7369 884.204 26.2674Z" fill="#1883D0"/>
<ellipse rx="0.978098" ry="0.987362" transform="matrix(-0.90044 -0.484246 0.514992 -0.830869 927.933 24.9579)" fill="#BCFF88"/>
</g>
<g clip-path="url(#clip14_1536_294)">
<path d="M951.218 31.8661C950.832 32.0641 950.394 31.7171 950.472 31.2741L951.302 26.5441L947.779 23.1881C947.45 22.8741 947.621 22.3001 948.062 22.2381L952.96 21.5421L955.144 17.2151C955.341 16.8251 955.874 16.8251 956.071 17.2151L958.255 21.5421L963.153 22.2381C963.594 22.3001 963.765 22.8741 963.435 23.1881L959.913 26.5441L960.743 31.2741C960.821 31.7171 960.383 32.0641 959.997 31.8661L955.606 29.6101L951.217 31.8661H951.218Z" fill="#F56C6C"/>
</g>
<g opacity="0.6">
<path d="M954.331 2.12745C954.724 2.3839 954.814 2.896 954.532 3.27124C954.25 3.64649 953.703 3.74278 953.31 3.48633C952.916 3.22987 952.826 2.71778 953.108 2.34253C953.39 1.96729 953.938 1.87099 954.331 2.12745Z" fill="#1883D0"/>
<path d="M937.587 11.7808C938.043 11.6671 938.517 11.9407 938.647 12.3918C938.777 12.843 938.513 13.3008 938.057 13.4145C937.602 13.5282 937.127 13.2546 936.997 12.8035C936.868 12.3523 937.132 11.8945 937.587 11.7808Z" fill="#1883D0"/>
<ellipse rx="0.846827" ry="0.853574" transform="matrix(-0.973872 0.243067 0.275293 0.957004 970.895 9.14063)" fill="#6CBBF5"/>
<path d="M969.984 41.7698C969.529 41.8834 969.054 41.6099 968.925 41.1587C968.795 40.7076 969.059 40.2497 969.514 40.136C969.97 40.0223 970.444 40.2959 970.574 40.747C970.704 41.1982 970.44 41.6561 969.984 41.7698Z" fill="#4AC66D"/>
<ellipse rx="0.900495" ry="0.853574" transform="matrix(0.973872 -0.243067 -0.275293 -0.957004 935.84 38.1808)" fill="#6C8AF5"/>
<ellipse rx="0.839258" ry="0.831383" transform="matrix(0.514992 -0.830869 0.90044 0.484246 952.933 46.237)" fill="#6C8AF5"/>
<path d="M933.318 26.5053C933.565 26.1063 934.101 25.9631 934.515 26.1854C934.928 26.4078 935.063 26.9115 934.815 27.3105C934.568 27.7095 934.032 27.8527 933.619 27.6304C933.205 27.408 933.071 26.9043 933.318 26.5053Z" fill="#1883D0"/>
<ellipse rx="0.861382" ry="0.869541" transform="matrix(-0.90044 -0.484246 0.514992 -0.830869 976.906 25.0806)" fill="#BCFF88"/>
</g>
<g clip-path="url(#clip15_1536_294)">
<path d="M1000.22 31.8661C999.832 32.0641 999.394 31.7171 999.472 31.2741L1000.3 26.5441L996.779 23.1881C996.45 22.8741 996.621 22.3001 997.062 22.2381L1001.96 21.5421L1004.14 17.2151C1004.34 16.8251 1004.87 16.8251 1005.07 17.2151L1007.26 21.5421L1012.15 22.2381C1012.59 22.3001 1012.77 22.8741 1012.44 23.1881L1008.91 26.5441L1009.74 31.2741C1009.82 31.7171 1009.38 32.0641 1009 31.8661L1004.61 29.6101L1000.22 31.8661H1000.22Z" fill="#F56C6C"/>
</g>
<g opacity="0.6">
<path d="M1003.33 2.12745C1003.72 2.3839 1003.81 2.896 1003.53 3.27124C1003.25 3.64649 1002.7 3.74278 1002.31 3.48633C1001.92 3.22987 1001.83 2.71778 1002.11 2.34253C1002.39 1.96729 1002.94 1.87099 1003.33 2.12745Z" fill="#1883D0"/>
<path d="M986.587 11.7808C987.043 11.6671 987.517 11.9407 987.647 12.3918C987.777 12.843 987.513 13.3008 987.057 13.4145C986.602 13.5282 986.127 13.2546 985.997 12.8035C985.868 12.3523 986.132 11.8945 986.587 11.7808Z" fill="#1883D0"/>
<ellipse rx="0.846827" ry="0.853574" transform="matrix(-0.973872 0.243067 0.275293 0.957004 1019.9 9.14063)" fill="#6CBBF5"/>
<path d="M1018.98 41.7698C1018.53 41.8834 1018.05 41.6099 1017.92 41.1587C1017.79 40.7076 1018.06 40.2497 1018.51 40.136C1018.97 40.0223 1019.44 40.2959 1019.57 40.747C1019.7 41.1982 1019.44 41.6561 1018.98 41.7698Z" fill="#4AC66D"/>
<ellipse rx="0.900495" ry="0.853574" transform="matrix(0.973872 -0.243067 -0.275293 -0.957004 984.84 38.1808)" fill="#6C8AF5"/>
<ellipse rx="0.839258" ry="0.831383" transform="matrix(0.514992 -0.830869 0.90044 0.484246 1001.93 46.237)" fill="#6C8AF5"/>
<path d="M982.318 26.5053C982.565 26.1063 983.101 25.9631 983.515 26.1854C983.928 26.4078 984.063 26.9115 983.815 27.3105C983.568 27.7095 983.032 27.8527 982.619 27.6304C982.205 27.408 982.071 26.9043 982.318 26.5053Z" fill="#1883D0"/>
<ellipse rx="0.861382" ry="0.869541" transform="matrix(-0.90044 -0.484246 0.514992 -0.830869 1025.91 25.0806)" fill="#BCFF88"/>
</g>
<g clip-path="url(#clip16_1536_294)">
<path d="M1048.49 32.1081C1048.11 32.3061 1047.67 31.9591 1047.75 31.5161L1048.58 26.7861L1045.05 23.4301C1044.73 23.1161 1044.9 22.5421 1045.34 22.4801L1050.24 21.7841L1052.42 17.4571C1052.62 17.0671 1053.15 17.0671 1053.35 17.4571L1055.53 21.7841L1060.43 22.4801C1060.87 22.5421 1061.04 23.1161 1060.71 23.4301L1057.19 26.7861L1058.02 31.5161C1058.1 31.9591 1057.66 32.3061 1057.27 32.1081L1052.88 29.8521L1048.49 32.1081H1048.49Z" fill="#F56C6C"/>
</g>
<g opacity="0.6">
<path d="M1052.28 1.14963C1052.69 1.4173 1052.78 1.95177 1052.49 2.34341C1052.2 2.73506 1051.62 2.83556 1051.21 2.5679C1050.8 2.30024 1050.71 1.76576 1051 1.37412C1051.3 0.982474 1051.87 0.881968 1052.28 1.14963Z" fill="#1883D0"/>
<path d="M1034.8 11.2248C1035.28 11.1061 1035.77 11.3917 1035.91 11.8625C1036.05 12.3334 1035.77 12.8113 1035.29 12.9299C1034.82 13.0486 1034.32 12.7631 1034.19 12.2922C1034.05 11.8213 1034.33 11.3434 1034.8 11.2248Z" fill="#1883D0"/>
<ellipse rx="0.883837" ry="0.89088" transform="matrix(-0.973872 0.243067 0.275293 0.957004 1069.57 8.46951)" fill="#6CBBF5"/>
<path d="M1068.62 42.5247C1068.14 42.6434 1067.65 42.3578 1067.51 41.887C1067.38 41.4161 1067.65 40.9382 1068.13 40.8196C1068.6 40.7009 1069.1 40.9864 1069.23 41.4573C1069.37 41.9282 1069.09 42.4061 1068.62 42.5247Z" fill="#4AC66D"/>
<ellipse rx="0.939851" ry="0.89088" transform="matrix(0.973872 -0.243067 -0.275293 -0.957004 1032.98 38.7788)" fill="#6C8AF5"/>
<ellipse rx="0.875938" ry="0.867719" transform="matrix(0.514992 -0.830869 0.90044 0.484246 1050.82 47.187)" fill="#6C8AF5"/>
<path d="M1030.35 26.5931C1030.61 26.1766 1031.17 26.0271 1031.6 26.2592C1032.03 26.4913 1032.17 27.017 1031.91 27.4334C1031.65 27.8499 1031.09 27.9994 1030.66 27.7673C1030.23 27.5352 1030.09 27.0095 1030.35 26.5931Z" fill="#1883D0"/>
<ellipse rx="0.899029" ry="0.907544" transform="matrix(-0.90044 -0.484246 0.514992 -0.830869 1075.84 25.106)" fill="#BCFF88"/>
</g>
<g clip-path="url(#clip17_1536_294)">
<path d="M1097.4 32.0043C1097.02 32.2023 1096.58 31.8553 1096.66 31.4123L1097.49 26.6823L1093.96 23.3263C1093.63 23.0123 1093.81 22.4383 1094.25 22.3763L1099.14 21.6803L1101.33 17.3533C1101.53 16.9633 1102.06 16.9633 1102.26 17.3533L1104.44 21.6803L1109.34 22.3763C1109.78 22.4383 1109.95 23.0123 1109.62 23.3263L1106.1 26.6823L1106.93 31.4123C1107.01 31.8553 1106.57 32.2023 1106.18 32.0043L1101.79 29.7483L1097.4 32.0043H1097.4Z" fill="#F56C6C"/>
</g>
<g opacity="0.4">
<path d="M1100.6 1.34806C1100.88 1.52909 1100.94 1.89057 1100.75 2.15545C1100.55 2.42032 1100.16 2.4883 1099.88 2.30727C1099.61 2.12624 1099.54 1.76477 1099.74 1.49989C1099.94 1.23501 1100.33 1.16704 1100.6 1.34806Z" fill="#1883D0"/>
<path d="M1083.59 11.7425C1083.92 11.6622 1084.25 11.8554 1084.34 12.1738C1084.43 12.4923 1084.25 12.8155 1083.93 12.8957C1083.6 12.976 1083.27 12.7829 1083.18 12.4644C1083.09 12.1459 1083.27 11.8227 1083.59 11.7425Z" fill="#1883D0"/>
<ellipse rx="0.59776" ry="0.602523" transform="matrix(-0.973872 0.243067 0.275293 0.957004 1118.68 8.02025)" fill="#6CBBF5"/>
<path d="M1117.65 41.7995C1117.33 41.8798 1116.99 41.6866 1116.9 41.3682C1116.81 41.0497 1116.99 40.7265 1117.31 40.6463C1117.64 40.566 1117.97 40.7591 1118.06 41.0776C1118.15 41.3961 1117.97 41.7193 1117.65 41.7995Z" fill="#4AC66D"/>
<ellipse rx="0.59776" ry="0.566613" transform="matrix(0.973872 -0.243067 -0.275293 -0.957004 1081.65 39.0686)" fill="#6C8AF5"/>
<ellipse rx="0.613794" ry="0.608035" transform="matrix(0.514992 -0.830869 0.90044 0.484246 1099.36 47.1753)" fill="#6C8AF5"/>
<path d="M1079.61 27.0054C1079.79 26.7237 1080.17 26.6226 1080.46 26.7796C1080.75 26.9365 1080.84 27.2921 1080.67 27.5738C1080.49 27.8554 1080.12 27.9565 1079.82 27.7996C1079.53 27.6426 1079.44 27.287 1079.61 27.0054Z" fill="#1883D0"/>
<ellipse rx="0.586859" ry="0.592417" transform="matrix(-0.90044 -0.484246 0.514992 -0.830869 1124.87 25.4152)" fill="#BCFF88"/>
</g>
<g clip-path="url(#clip18_1536_294)">
<path d="M1147.06 31.5929C1146.67 31.7909 1146.24 31.4439 1146.31 31.0009L1147.14 26.2709L1143.62 22.9149C1143.29 22.6009 1143.46 22.0269 1143.9 21.9649L1148.8 21.2689L1150.99 16.9419C1151.18 16.5519 1151.72 16.5519 1151.91 16.9419L1154.1 21.2689L1159 21.9649C1159.44 22.0269 1159.61 22.6009 1159.28 22.9149L1155.76 26.2709L1156.59 31.0009C1156.66 31.4439 1156.23 31.7909 1155.84 31.5929L1151.45 29.3369L1147.06 31.5929H1147.06Z" fill="#F56C6C"/>
</g>
<g opacity="0.2">
<path d="M1149.27 0.43469C1149.51 0.592002 1149.57 0.906124 1149.39 1.1363C1149.22 1.36648 1148.89 1.42555 1148.64 1.26824C1148.4 1.11093 1148.35 0.796802 1148.52 0.566625C1148.69 0.336447 1149.03 0.277378 1149.27 0.43469Z" fill="#1883D0"/>
<path d="M1131.7 11.3901C1131.98 11.3204 1132.27 11.4882 1132.35 11.765C1132.43 12.0417 1132.27 12.3226 1131.99 12.3923C1131.71 12.462 1131.42 12.2942 1131.34 12.0175C1131.26 11.7407 1131.42 11.4599 1131.7 11.3901Z" fill="#1883D0"/>
<ellipse rx="0.519451" ry="0.52359" transform="matrix(-0.973872 0.243067 0.275293 0.957004 1168.4 7.15737)" fill="#6CBBF5"/>
<path d="M1167.3 42.282C1167.02 42.3517 1166.73 42.1839 1166.65 41.9072C1166.57 41.6304 1166.73 41.3496 1167.01 41.2798C1167.29 41.2101 1167.58 41.3779 1167.66 41.6546C1167.74 41.9314 1167.58 42.2122 1167.3 42.282Z" fill="#4AC66D"/>
<ellipse rx="0.519451" ry="0.492384" transform="matrix(0.973872 -0.243067 -0.275293 -0.957004 1129.64 39.779)" fill="#6C8AF5"/>
<ellipse rx="0.533384" ry="0.528379" transform="matrix(0.514992 -0.830869 0.90044 0.484246 1148.04 48.1508)" fill="#6C8AF5"/>
<path d="M1127.72 27.2678C1127.87 27.023 1128.2 26.9351 1128.46 27.0715C1128.71 27.2079 1128.79 27.5169 1128.64 27.7617C1128.49 28.0064 1128.16 28.0943 1127.91 27.9579C1127.65 27.8215 1127.57 27.5125 1127.72 27.2678Z" fill="#1883D0"/>
<ellipse rx="0.509978" ry="0.514808" transform="matrix(-0.90044 -0.484246 0.514992 -0.830869 1174.83 25.5575)" fill="#BCFF88"/>
</g>
<g clip-path="url(#clip19_1536_294)">
<path d="M1196.06 31.5929C1195.67 31.7909 1195.24 31.4439 1195.31 31.0009L1196.14 26.2709L1192.62 22.9149C1192.29 22.6009 1192.46 22.0269 1192.9 21.9649L1197.8 21.2689L1199.99 16.9419C1200.18 16.5519 1200.72 16.5519 1200.91 16.9419L1203.1 21.2689L1208 21.9649C1208.44 22.0269 1208.61 22.6009 1208.28 22.9149L1204.76 26.2709L1205.59 31.0009C1205.66 31.4439 1205.23 31.7909 1204.84 31.5929L1200.45 29.3369L1196.06 31.5929H1196.06Z" fill="#F56C6C"/>
</g>
<g opacity="0.1">
<path d="M1198.27 0.43469C1198.51 0.592002 1198.57 0.906124 1198.39 1.1363C1198.22 1.36648 1197.89 1.42555 1197.64 1.26824C1197.4 1.11093 1197.35 0.796802 1197.52 0.566625C1197.69 0.336447 1198.03 0.277378 1198.27 0.43469Z" fill="#1883D0"/>
<path d="M1180.7 11.3901C1180.98 11.3204 1181.27 11.4882 1181.35 11.765C1181.43 12.0417 1181.27 12.3226 1180.99 12.3923C1180.71 12.462 1180.42 12.2942 1180.34 12.0175C1180.26 11.7407 1180.42 11.4599 1180.7 11.3901Z" fill="#1883D0"/>
<ellipse rx="0.519451" ry="0.52359" transform="matrix(-0.973872 0.243067 0.275293 0.957004 1217.4 7.15737)" fill="#6CBBF5"/>
<path d="M1216.3 42.282C1216.02 42.3517 1215.73 42.1839 1215.65 41.9072C1215.57 41.6304 1215.73 41.3496 1216.01 41.2798C1216.29 41.2101 1216.58 41.3779 1216.66 41.6546C1216.74 41.9314 1216.58 42.2122 1216.3 42.282Z" fill="#4AC66D"/>
<ellipse rx="0.519451" ry="0.492384" transform="matrix(0.973872 -0.243067 -0.275293 -0.957004 1178.64 39.779)" fill="#6C8AF5"/>
<ellipse rx="0.533384" ry="0.528379" transform="matrix(0.514992 -0.830869 0.90044 0.484246 1197.04 48.1508)" fill="#6C8AF5"/>
<path d="M1176.72 27.2678C1176.87 27.023 1177.2 26.9351 1177.46 27.0715C1177.71 27.2079 1177.79 27.5169 1177.64 27.7617C1177.49 28.0064 1177.16 28.0943 1176.91 27.9579C1176.65 27.8215 1176.57 27.5125 1176.72 27.2678Z" fill="#1883D0"/>
<ellipse rx="0.509978" ry="0.514808" transform="matrix(-0.90044 -0.484246 0.514992 -0.830869 1223.83 25.5575)" fill="#BCFF88"/>
</g>
<g clip-path="url(#clip20_1536_294)">
<path d="M1245.06 31.5929C1244.67 31.7909 1244.24 31.4439 1244.31 31.0009L1245.14 26.2709L1241.62 22.9149C1241.29 22.6009 1241.46 22.0269 1241.9 21.9649L1246.8 21.2689L1248.99 16.9419C1249.18 16.5519 1249.72 16.5519 1249.91 16.9419L1252.1 21.2689L1257 21.9649C1257.44 22.0269 1257.61 22.6009 1257.28 22.9149L1253.76 26.2709L1254.59 31.0009C1254.66 31.4439 1254.23 31.7909 1253.84 31.5929L1249.45 29.3369L1245.06 31.5929H1245.06Z" fill="#F56C6C"/>
</g>
<g opacity="0.05">
<path d="M1247.27 0.43469C1247.51 0.592002 1247.57 0.906124 1247.39 1.1363C1247.22 1.36648 1246.89 1.42555 1246.64 1.26824C1246.4 1.11093 1246.35 0.796802 1246.52 0.566625C1246.69 0.336447 1247.03 0.277378 1247.27 0.43469Z" fill="#1883D0"/>
<path d="M1229.7 11.3901C1229.98 11.3204 1230.27 11.4882 1230.35 11.765C1230.43 12.0417 1230.27 12.3226 1229.99 12.3923C1229.71 12.462 1229.42 12.2942 1229.34 12.0175C1229.26 11.7407 1229.42 11.4599 1229.7 11.3901Z" fill="#1883D0"/>
<ellipse rx="0.519451" ry="0.52359" transform="matrix(-0.973872 0.243067 0.275293 0.957004 1266.4 7.15737)" fill="#6CBBF5"/>
<path d="M1265.3 42.282C1265.02 42.3517 1264.73 42.1839 1264.65 41.9072C1264.57 41.6304 1264.73 41.3496 1265.01 41.2798C1265.29 41.2101 1265.58 41.3779 1265.66 41.6546C1265.74 41.9314 1265.58 42.2122 1265.3 42.282Z" fill="#4AC66D"/>
<ellipse rx="0.519451" ry="0.492384" transform="matrix(0.973872 -0.243067 -0.275293 -0.957004 1227.64 39.779)" fill="#6C8AF5"/>
<ellipse rx="0.533384" ry="0.528379" transform="matrix(0.514992 -0.830869 0.90044 0.484246 1246.04 48.1508)" fill="#6C8AF5"/>
<path d="M1225.72 27.2678C1225.87 27.023 1226.2 26.9351 1226.46 27.0715C1226.71 27.2079 1226.79 27.5169 1226.64 27.7617C1226.49 28.0064 1226.16 28.0943 1225.91 27.9579C1225.65 27.8215 1225.57 27.5125 1225.72 27.2678Z" fill="#1883D0"/>
<ellipse rx="0.509978" ry="0.514808" transform="matrix(-0.90044 -0.484246 0.514992 -0.830869 1272.83 25.5575)" fill="#BCFF88"/>
</g>
<g clip-path="url(#clip21_1536_294)">
<path d="M1294.06 31.5929C1293.67 31.7909 1293.24 31.4439 1293.31 31.0009L1294.14 26.2709L1290.62 22.9149C1290.29 22.6009 1290.46 22.0269 1290.9 21.9649L1295.8 21.2689L1297.99 16.9419C1298.18 16.5519 1298.72 16.5519 1298.91 16.9419L1301.1 21.2689L1306 21.9649C1306.44 22.0269 1306.61 22.6009 1306.28 22.9149L1302.76 26.2709L1303.59 31.0009C1303.66 31.4439 1303.23 31.7909 1302.84 31.5929L1298.45 29.3369L1294.06 31.5929H1294.06Z" fill="#F56C6C"/>
</g>
<g clip-path="url(#clip22_1536_294)">
<path d="M1343.06 31.5929C1342.67 31.7909 1342.24 31.4439 1342.31 31.0009L1343.14 26.2709L1339.62 22.9149C1339.29 22.6009 1339.46 22.0269 1339.9 21.9649L1344.8 21.2689L1346.99 16.9419C1347.18 16.5519 1347.72 16.5519 1347.91 16.9419L1350.1 21.2689L1355 21.9649C1355.44 22.0269 1355.61 22.6009 1355.28 22.9149L1351.76 26.2709L1352.59 31.0009C1352.66 31.4439 1352.23 31.7909 1351.84 31.5929L1347.45 29.3369L1343.06 31.5929H1343.06Z" fill="#F56C6C"/>
</g>
<g opacity="0.01">
<path d="M1345.27 0.43469C1345.51 0.592002 1345.57 0.906124 1345.39 1.1363C1345.22 1.36648 1344.89 1.42555 1344.64 1.26824C1344.4 1.11093 1344.35 0.796802 1344.52 0.566625C1344.69 0.336447 1345.03 0.277378 1345.27 0.43469Z" fill="#1883D0"/>
<path d="M1327.7 11.3901C1327.98 11.3204 1328.27 11.4882 1328.35 11.765C1328.43 12.0417 1328.27 12.3226 1327.99 12.3923C1327.71 12.462 1327.42 12.2942 1327.34 12.0175C1327.26 11.7407 1327.42 11.4599 1327.7 11.3901Z" fill="#1883D0"/>
<ellipse rx="0.519451" ry="0.52359" transform="matrix(-0.973872 0.243067 0.275293 0.957004 1364.4 7.15737)" fill="#6CBBF5"/>
<path d="M1363.3 42.282C1363.02 42.3517 1362.73 42.1839 1362.65 41.9072C1362.57 41.6304 1362.73 41.3496 1363.01 41.2798C1363.29 41.2101 1363.58 41.3779 1363.66 41.6546C1363.74 41.9314 1363.58 42.2122 1363.3 42.282Z" fill="#4AC66D"/>
<ellipse rx="0.519451" ry="0.492384" transform="matrix(0.973872 -0.243067 -0.275293 -0.957004 1325.64 39.779)" fill="#6C8AF5"/>
<ellipse rx="0.533384" ry="0.528379" transform="matrix(0.514992 -0.830869 0.90044 0.484246 1344.04 48.1508)" fill="#6C8AF5"/>
<path d="M1323.72 27.2678C1323.87 27.023 1324.2 26.9351 1324.46 27.0715C1324.71 27.2079 1324.79 27.5169 1324.64 27.7617C1324.49 28.0064 1324.16 28.0943 1323.91 27.9579C1323.65 27.8215 1323.57 27.5125 1323.72 27.2678Z" fill="#1883D0"/>
<ellipse rx="0.509978" ry="0.514808" transform="matrix(-0.90044 -0.484246 0.514992 -0.830869 1370.83 25.5575)" fill="#BCFF88"/>
</g>
<defs>
<clipPath id="clip0_1536_294">
<rect width="16" height="16" fill="white" transform="translate(16.5 16.5)"/>
</clipPath>
<clipPath id="clip1_1536_294">
<rect width="8" height="8" fill="white" transform="translate(314.5 20.5)"/>
</clipPath>
<clipPath id="clip2_1536_294">
<rect width="11" height="11" fill="white" transform="translate(362 19)"/>
</clipPath>
<clipPath id="clip3_1536_294">
<rect width="14" height="14" fill="white" transform="translate(409 17.1506)"/>
</clipPath>
<clipPath id="clip4_1536_294">
<rect width="17" height="17" fill="white" transform="translate(456.5 15.5)"/>
</clipPath>
<clipPath id="clip5_1536_294">
<rect width="20" height="20" fill="white" transform="translate(504 14)"/>
</clipPath>
<clipPath id="clip6_1536_294">
<rect width="20" height="20" fill="white" transform="translate(554 14)"/>
</clipPath>
<clipPath id="clip7_1536_294">
<rect width="21.093" height="21.093" fill="white" transform="translate(602 14)"/>
</clipPath>
<clipPath id="clip8_1536_294">
<rect width="19.09" height="19.09" fill="white" transform="translate(652 15)"/>
</clipPath>
<clipPath id="clip9_1536_294">
<rect width="18" height="18" fill="white" transform="translate(701.635 15.5767)"/>
</clipPath>
<clipPath id="clip10_1536_294">
<rect width="17" height="17" fill="white" transform="translate(750.635 15.5767)"/>
</clipPath>
<clipPath id="clip11_1536_294">
<rect width="17" height="17" fill="white" transform="translate(799.635 15.5767)"/>
</clipPath>
<clipPath id="clip12_1536_294">
<rect width="17" height="17" fill="white" transform="translate(848.635 15.5767)"/>
</clipPath>
<clipPath id="clip13_1536_294">
<rect width="16" height="16" fill="white" transform="translate(898.678 16.4551)"/>
</clipPath>
<clipPath id="clip14_1536_294">
<rect width="16" height="16" fill="white" transform="translate(947.606 16.4231)"/>
</clipPath>
<clipPath id="clip15_1536_294">
<rect width="16" height="16" fill="white" transform="translate(996.606 16.4231)"/>
</clipPath>
<clipPath id="clip16_1536_294">
<rect width="16" height="16" fill="white" transform="translate(1044.88 16.665)"/>
</clipPath>
<clipPath id="clip17_1536_294">
<rect width="16" height="16" fill="white" transform="translate(1093.79 16.5613)"/>
</clipPath>
<clipPath id="clip18_1536_294">
<rect width="16" height="16" fill="white" transform="translate(1143.45 16.1499)"/>
</clipPath>
<clipPath id="clip19_1536_294">
<rect width="16" height="16" fill="white" transform="translate(1192.45 16.1499)"/>
</clipPath>
<clipPath id="clip20_1536_294">
<rect width="16" height="16" fill="white" transform="translate(1241.45 16.1499)"/>
</clipPath>
<clipPath id="clip21_1536_294">
<rect width="16" height="16" fill="white" transform="translate(1290.45 16.1499)"/>
</clipPath>
<clipPath id="clip22_1536_294">
<rect width="16" height="16" fill="white" transform="translate(1339.45 16.1499)"/>
</clipPath>
</defs>
</svg>
